{"title":"Chrome.Angels.2009.DVDRiP.XviD.FEEL-FREE","uid":5710376,"size":899615665,"categoryP":"video","categoryS":"movies","magnet":"?xt=urn:btih:fed262a0d58704196b663a3e6afcc366492d9ebd&amp;dn=Chrome.Angels.2009.DVDRiP.XviD.FEEL-FREE&amp;tr=udp%3A%2F%2Ftracker.openbittorrent.com%3A80&amp;tr=udp%3A%2F%2Fopen.demonii.com%3A1337&amp;tr=udp%3A%2F%2Ftracker.coppersurfer.tk%3A6969&amp;tr=udp%3A%2F%2Fexodus.desync.com%3A6969","seeders":0,"leechers":1,"uploader":"hiest","files":10,"time":1279871689,"description":"Genre:Action | Sci-Fi \nLanguage:English\nIMDb:http://www.imdb.com/title/tt1328910/\nSource:DVD \nEncoder: Tony2\n............................................\nGeneral\nComplete name : Chrome.Angels.2009.DVDRiP.XviD.FEEL-FREE\nFormat : AVI\nFormat/Info : Audio Video Interleave\nFile size : 857 MiB\nDuration : 1h 29mn\nOverall bit rate : 1 339 Kbps\n.............................................\nVideo\nFormat : xvid\nCodec ID : xvid\nDuration : 1h 29mn\nBit rate : 1 198 Kbps\nWidth : 684 pixels\nHeight : 302 pixels\nDisplay aspect ratio : 2.25:1\nFrame rate : 25.000 fps\nResolution : 24 bits\nBits/(Pixel*Frame) : 0.232\nStream size : 767 MiB (89%)\n..............................................\nAudio\nID : 1\nFormat : MPEG Audio\nFormat version : Version 1\nFormat profile : Layer 3\nFormat settings, Mode : Joint stereo / MS Stereo\nCodec ID : 55\nCodec ID/Hint : MP3\nDuration : 1h 29mn\nBit rate mode : Constant\nBit rate : 128 Kbps\nChannel(s) : 2 channels\nSampling rate : 48.0 KHz\nResolution : 16 bits\nStream size : 82.0 MiB (10%)\nAlignment : Aligned on interleaves\nInterleave, duration : 24 ms (0.60 video frame)\nInterleave, preload duration : 24 ms\n.................................................\n\nScreenshots\n &lt;a href=&quot;\nhttp://postimg.com/image/19000/18285.jpg&quot; rel=&quot;nofollow&quot; target=&quot;_NEW&quot;&gt;\nhttp://postimg.com/image/19000/18285.jpg&lt;/a&gt;\n &lt;a href=&quot;\nhttp://postimg.com/image/19000/18286.jpg&quot; rel=&quot;nofollow&quot; target=&quot;_NEW&quot;&gt;\nhttp://postimg.com/image/19000/18286.jpg&lt;/a&gt;\n &lt;a href=&quot;\nhttp://postimg.com/image/19000/18287.jpg&quot; rel=&quot;nofollow&quot; target=&quot;_NEW&quot;&gt;\nhttp://postimg.com/image/19000/18287.jpg&lt;/a&gt;\n\n.......................................................\n\n &lt;a href=&quot;\nhttp://www.imdb.com/title/tt1328910/&quot; rel=&quot;nofollow&quot; target=&quot;_NEW&quot;&gt;\nhttp://www.imdb.com/title/tt1328910/&lt;/a&gt;\n\n\n...............................................................","torrent":{"xt":"urn:btih:fed262a0d58704196b663a3e6afcc366492d9ebd","amp;dn":"Chrome.Angels.2009.DVDRiP.XviD.FEEL-FREE","amp;tr":["udp%3A%2F%2Ftracker.openbittorrent.com%3A80","udp%3A%2F%2Fopen.demonii.com%3A1337","udp%3A%2F%2Ftracker.coppersurfer.tk%3A6969","udp%3A%2F%2Fexodus.desync.com%3A6969"],"infoHash":"fed262a0d58704196b663a3e6afcc366492d9ebd","infoHashBuffer":{"type":"Buffer","data":[254,210,98,160,213,135,4,25,107,102,58,62,106,252,195,102,73,45,158,189]},"announce":[],"urlList":[]}}